<svg width="20000" height="20000" viewBox="0 0 20000 20000" fill="none" xmlns="http://www.w3.org/2000/svg">
<path d="M17737.8 8503.44L16539.6 9514.46L18472.9 9686.34L20000 9952.81L19932.9 9878.46L19087.1 9423.46L18281.6 8907.79L17737.8 8503.44Z" fill="#FF3D00"/>
<path d="M10004.8 0L9793.32 1213.24L9632.21 2436.68L9541.59 3892.68L9501.31 4974.57L9541.59 6228.35L9632.21 7482.12L9783.25 8746.01L10004.8 10000L10337 9929.01L11072.1 1728.91C11072.1 1728.91 10004.8 0.109886 10004.8 0Z" fill="#FF3D00"/>
<path d="M14052.5 5429.66L13740.4 5106.11L12501.9 9615.66L12783.8 9585.33L14052.5 5429.66Z" fill="#FF3D00"/>
<path d="M12048.8 3124.33L11434.6 2254.78L10528.4 9898.78L10981.5 9827.99L12048.8 3124.33Z" fill="#FF3D00"/>
<path d="M12824.1 4105.11L12360.9 3518.66L11203 9793.32L11575.5 9736.99L12824.1 4105.11Z" fill="#FF3D00"/>
<path d="M13418.2 4762.33L13055.7 4347.77L11907.8 9686.44L12220 9645.99L13418.2 4762.33Z" fill="#FF3D00"/>
<path d="M14576.1 5945.33L14284.1 5652.11L13075.8 9554.99L13287.3 9544.88L14576.1 5945.33Z" fill="#FF3D00"/>
<path d="M15069.5 6410.44L14787.6 6137.44L13518.9 9534.68L13740.4 9514.46L15069.5 6410.44Z" fill="#FF3D00"/>
<path d="M15552.8 6835.1L15311.2 6612.66L13961.9 9514.46L14183.4 9494.23L15552.8 6835.1Z" fill="#FF3D00"/>
<path d="M16026.1 7245.97L15756.7 7003.31L14415 9484.21H14606.3L16026.1 7245.97Z" fill="#FF3D00"/>
<path d="M16469.1 7603.55L16237.5 7401.33L14807.7 9474.01H15009.1L16469.1 7603.55Z" fill="#FF3D00"/>
<path d="M16892 7937.22L16660.4 7745.1L15220.6 9474.01H15421.9L16892 7937.22Z" fill="#FF3D00"/>
<path d="M17274.6 8169.77L17083.3 8038.33L15683.7 9494.23H15895.2L17274.6 8169.77Z" fill="#FF3D00"/>
<path d="M17617 8422.55L17425.7 8280.99L16126.8 9494.23H16328.2L17617 8422.55Z" fill="#FF3D00"/>
<path d="M2262.18 11496.6L3460.4 10485.5L1527.13 10313.7L0 10047.2L67.1158 10121.5L912.919 10576.5L1718.45 11092.2L2262.18 11496.6Z" fill="#FF3D00"/>
<path d="M9995.2 20000L10206.7 18786.8L10367.8 17563.3L10458.4 16107.3L10498.7 15025.4L10458.4 13771.7L10367.8 12517.9L10216.8 11254L9995.2 10000L9662.95 10071L8927.91 18271.1C8927.91 18271.1 9995.22 19999.9 9995.2 20000Z" fill="#FF3D00"/>
<path d="M5947.46 14570.3L6259.6 14893.9L7498.1 10384.3L7216.17 10414.7L5947.46 14570.3Z" fill="#FF3D00"/>
<path d="M7951.21 16875.7L8565.42 17745.2L9471.64 10101.2L9018.53 10172L7951.21 16875.7Z" fill="#FF3D00"/>
<path d="M7175.89 15894.9L7639.07 16481.3L8797.01 10206.7L8424.46 10263L7175.89 15894.9Z" fill="#FF3D00"/>
<path d="M6581.81 15237.7L6944.3 15652.2L8092.18 10313.6L7780.03 10354L6581.81 15237.7Z" fill="#FF3D00"/>
<path d="M5423.87 14054.7L5715.87 14347.9L6924.16 10445L6712.71 10455.1L5423.87 14054.7Z" fill="#FF3D00"/>
<path d="M4930.48 13589.6L5212.42 13862.6L6481.12 10465.3L6259.6 10485.5L4930.48 13589.6Z" fill="#FF3D00"/>
<path d="M4447.17 13164.9L4688.83 13387.3L6038.08 10485.5L5816.56 10505.8L4447.17 13164.9Z" fill="#FF3D00"/>
<path d="M3973.92 12754L4243.27 12996.7L5584.97 10515.8H5393.66L3973.92 12754Z" fill="#FF3D00"/>
<path d="M3530.88 12396.5L3762.47 12598.7L5192.28 10526H4990.9L3530.88 12396.5Z" fill="#FF3D00"/>
<path d="M3107.98 12062.8L3339.57 12254.9L4779.45 10526H4578.07L3107.98 12062.8Z" fill="#FF3D00"/>
<path d="M2725.35 11830.2L2916.67 11961.7L4316.27 10505.8H4104.82L2725.35 11830.2Z" fill="#FF3D00"/>
<path d="M2383.01 11577.5L2574.32 11719L3873.23 10505.8H3671.85L2383.01 11577.5Z" fill="#FF3D00"/>
</svg>
