<svg width="20000" height="20000" viewBox="0 0 20000 20000" fill="none" xmlns="http://www.w3.org/2000/svg">
<path d="M0 0H20000V20000H0V0Z" fill="#FBD756"/>
<path d="M15120 9006.67L14326.7 9673.27L15606.7 9786.61L16617.8 9962.3L16573.3 9913.27L16013.3 9613.27L15480 9273.27L15120 9006.67Z" fill="#FF0000"/>
<path d="M10000 3400L9860 4199.94L9753.33 5006.61L9693.33 5966.61L9666.67 6679.94L9693.33 7506.61L9753.33 8333.27L9853.33 9166.61L10000 9993.41L10220 9946.61L10706.7 4539.94C10706.7 4539.94 10000 3400.07 10000 3400Z" fill="#FF0000"/>
<path d="M12680 6980L12473.3 6766.67L11653.3 9749.52L11840 9729.52L12680 6980Z" fill="#FF0000"/>
<path d="M11353.3 5460L10946.7 4886.67L10346.7 9926.67L10646.7 9880L11353.3 5460Z" fill="#FF0000"/>
<path d="M11866.7 6106.67L11560 5720L10793.3 9857.14L11040 9820L11866.7 6106.67Z" fill="#FF0000"/>
<path d="M12260 6540L12020 6266.67L11260 9793.33L11466.7 9773.33L12260 6540Z" fill="#FF0000"/>
<path d="M13026.7 7320L12833.3 7126.67L12026.7 9713.33L12173.3 9700L13026.7 7320Z" fill="#FF0000"/>
<path d="M13353.3 7626.67L13166.7 7446.67L12326.7 9686.61L12473.3 9673.27L13353.3 7626.67Z" fill="#FF0000"/>
<path d="M13673.3 7906.67L13513.3 7760L12620 9673.27L12766.7 9659.94L13673.3 7906.67Z" fill="#FF0000"/>
<path d="M13966.7 8160L13786.7 8000L12880 9673.27L13026.7 9659.94L13966.7 8160Z" fill="#FF0000"/>
<path d="M14280 8413.33L14126.7 8280L13166.7 9659.94L13313.3 9646.61L14280 8413.33Z" fill="#FF0000"/>
<path d="M14580 8633.33L14426.7 8506.67L13473.3 9646.61H13606.7L14580 8633.33Z" fill="#FF0000"/>
<path d="M14813.3 8786.67L14686.7 8700L13760 9659.94H13900L14813.3 8786.67Z" fill="#FF0000"/>
<path d="M15040 8953.33L14913.3 8860L14053.3 9659.94H14186.7L15040 8953.33Z" fill="#FF0000"/>
<path d="M4871.04 10986.7L5664.37 10320.1L4384.37 10206.8L3373.27 10031.1L3417.71 10080.1L3977.71 10380.1L4511.04 10720.1L4871.04 10986.7Z" fill="#FF0000"/>
<path d="M9991.02 16593.4L10131 15793.5L10237.7 14986.8L10297.7 14026.8L10324.4 13313.5L10297.7 12486.8L10237.7 11660.1L10137.7 10826.8L9991.02 10000L9771.04 10046.8L9284.37 15453.5C9284.37 15453.5 9991.03 16593.3 9991.02 16593.4Z" fill="#FF0000"/>
<path d="M7311.04 13013.4L7517.71 13226.7L8337.71 10243.9L8151.04 10263.9L7311.04 13013.4Z" fill="#FF0000"/>
<path d="M8637.71 14533.4L9044.37 15106.7L9644.37 10066.7L9344.37 10113.4L8637.71 14533.4Z" fill="#FF0000"/>
<path d="M8124.37 13886.7L8431.04 14273.4L9197.71 10136.3L8951.04 10173.4L8124.37 13886.7Z" fill="#FF0000"/>
<path d="M7731.04 13453.4L7971.04 13726.7L8731.04 10200.1L8524.37 10220.1L7731.04 13453.4Z" fill="#FF0000"/>
<path d="M6964.37 12673.4L7157.71 12866.7L7964.37 10280.1L7817.71 10293.4L6964.37 12673.4Z" fill="#FF0000"/>
<path d="M6637.71 12366.7L6824.37 12546.7L7664.37 10306.8L7517.71 10320.1L6637.71 12366.7Z" fill="#FF0000"/>
<path d="M6317.71 12086.7L6477.71 12233.4L7371.04 10320.1L7224.37 10333.5L6317.71 12086.7Z" fill="#FF0000"/>
<path d="M6024.37 11833.4L6204.37 11993.4L7111.04 10320.1L6964.37 10333.5L6024.37 11833.4Z" fill="#FF0000"/>
<path d="M5711.04 11580.1L5864.37 11713.4L6824.37 10333.5L6677.71 10346.8L5711.04 11580.1Z" fill="#FF0000"/>
<path d="M5411.04 11360.1L5564.37 11486.7L6517.71 10346.8H6384.37L5411.04 11360.1Z" fill="#FF0000"/>
<path d="M5177.71 11206.7L5304.37 11293.4L6231.04 10333.5H6091.04L5177.71 11206.7Z" fill="#FF0000"/>
<path d="M4951.04 11040.1L5077.71 11133.4L5937.71 10333.5H5804.37L4951.04 11040.1Z" fill="#FF0000"/>
</svg>
