<?xml version="1.0" encoding="UTF-8"?>
<svg id="Ebene_1" xmlns="http://www.w3.org/2000/svg" version="1.1" viewBox="0 0 498 563">
  <!-- Generator: Adobe Illustrator 29.2.1, SVG Export Plug-In . SVG Version: 2.1.0 Build 116)  -->
  <defs>
    <style>
      .st0 {
        fill: #f77bb6;
      }
    </style>
  </defs>
  <polygon class="st0" points="273.93 224.46 223.81 224.46 219.38 220.03 219.38 169.91 223.81 165.48 273.93 165.48 278.36 169.91 278.36 220.03 273.93 224.46"/>
  <path class="st0" d="M311.37,329.26l20.44,62.26-5.76,5.76-62.24-20.45c-9.72-3.12-20.14-3.12-29.85,0l-62.21,20.48-5.76-5.76,20.41-62.28c3.12-9.72,3.12-20.14,0-29.85l-20.48-62.22,5.76-5.76,62.28,20.41c9.72,3.12,20.14,3.12,29.85,0l62.27-20.42,5.76,5.76-20.46,62.23c-3.12,9.72-3.12,20.14,0,29.85Z"/>
</svg>