<svg width="200" height="30" viewBox="0 0 200 30" fill="none" xmlns="http://www.w3.org/2000/svg">
<path d="M34.6135 29.2256H31.2222V9.46484H45.031V12.3923H34.6135V17.8084H44.3237V20.7358H34.6135V29.2256Z" fill="#26242E"/>
<path d="M53.5941 29.518C52.0484 29.518 50.7032 29.2053 49.556 28.5788C48.4087 27.9522 47.5186 27.0697 46.8845 25.9312C46.2503 24.7928 45.9326 23.4514 45.9326 21.9057C45.9326 20.36 46.2453 19.0186 46.8719 17.8802C47.4972 16.7417 48.3885 15.8592 49.5434 15.2339C50.6982 14.6073 52.056 14.2947 53.618 14.2947C55.1801 14.2947 56.553 14.6035 57.6927 15.2213C58.8312 15.8391 59.7086 16.7178 60.3277 17.8562C60.9454 18.9947 61.2543 20.3449 61.2543 21.9057C61.2543 23.4665 60.9454 24.7966 60.3277 25.9438C59.7099 27.0898 58.8274 27.9723 57.6801 28.5901C56.5341 29.2079 55.1713 29.5167 53.5941 29.5167V29.518ZM50.5444 12.783C50.0237 12.783 49.5812 12.6002 49.2143 12.2334C48.8487 11.8678 48.6659 11.4328 48.6659 10.9285C48.6659 10.4242 48.8487 9.98927 49.2143 9.62365C49.5799 9.25804 50.0237 9.07397 50.5444 9.07397C51.0651 9.07397 51.4836 9.25678 51.8492 9.62365C52.2148 9.98927 52.3976 10.4242 52.3976 10.9285C52.3976 11.4328 52.2148 11.8678 51.8492 12.2334C51.4836 12.599 51.0474 12.783 50.5444 12.783ZM53.5941 26.6397C54.9758 26.6397 56.0462 26.2174 56.8026 25.3715C57.5591 24.5255 57.9373 23.3707 57.9373 21.907C57.9373 20.4433 57.5591 19.2481 56.8026 18.4185C56.0462 17.589 54.9771 17.1742 53.5941 17.1742C52.2111 17.1742 51.1621 17.5927 50.3981 18.4311C49.6329 19.2695 49.2509 20.4281 49.2509 21.907C49.2509 23.3858 49.6329 24.5255 50.3981 25.3715C51.1621 26.2174 52.2274 26.6397 53.5941 26.6397ZM56.6438 12.783C56.1395 12.783 55.7045 12.6002 55.3389 12.2334C54.9733 11.8678 54.7905 11.4328 54.7905 10.9285C54.7905 10.4242 54.9733 9.98927 55.3389 9.62365C55.7045 9.25804 56.1395 9.07397 56.6438 9.07397C57.1481 9.07397 57.607 9.25678 57.9739 9.62365C58.3395 9.98927 58.5223 10.4242 58.5223 10.9285C58.5223 11.4328 58.3395 11.8678 57.9739 12.2334C57.6083 12.599 57.1645 12.783 56.6438 12.783Z" fill="#26242E"/>
<path d="M64.5469 29.2254V17.9293H62.8638V14.5871H66.3283V17.3922H67.3532C67.7441 16.4328 68.3656 15.7003 69.2191 15.196C70.0726 14.6917 71.0522 14.4396 72.1591 14.4396H73.3783V17.2939H72.0116C70.6286 17.2939 69.5847 17.6923 68.8762 18.489C68.1689 19.2858 67.8147 20.3511 67.8147 21.685V29.2229H64.5456L64.5469 29.2254Z" fill="#26242E"/>
<path d="M80.5999 29.518C79.1198 29.518 77.8591 29.2053 76.819 28.5787C75.7776 27.9522 74.9896 27.0696 74.4526 25.9312C73.9155 24.7928 73.647 23.4513 73.647 21.9057C73.647 20.36 73.9117 19.0148 74.44 17.8676C74.9682 16.7203 75.7335 15.839 76.7332 15.2213C77.733 14.6035 78.9244 14.2946 80.3074 14.2946C81.4459 14.2946 82.4217 14.5102 83.2348 14.9414C84.048 15.3726 84.6746 15.9866 85.1133 16.7833H85.2104V8.7323H88.5287V25.882H90.1878V29.2242H86.7485V26.907H85.7235C85.2192 27.753 84.5397 28.3997 83.6862 28.846C82.8327 29.2936 81.8039 29.5167 80.5999 29.5167V29.518ZM81.1622 26.6637C82.3977 26.6637 83.3823 26.3145 84.1136 25.6148C84.846 24.9163 85.2117 23.972 85.2117 22.7857V21.0295C85.2117 19.8431 84.846 18.8988 84.1136 18.1991C83.3811 17.5007 82.3977 17.1502 81.1622 17.1502C79.812 17.1502 78.7756 17.5738 78.052 18.4185C77.3283 19.2645 76.9665 20.4268 76.9665 21.9069C76.9665 23.387 77.3283 24.5494 78.052 25.3954C78.7756 26.2413 79.812 26.6637 81.1622 26.6637Z" fill="#26242E"/>
<path d="M99.1894 29.518C97.6438 29.518 96.2986 29.2053 95.1513 28.5787C94.0041 27.9521 93.1228 27.0621 92.5038 25.9072C91.886 24.7524 91.5771 23.4034 91.5771 21.8578C91.5771 20.3121 91.8822 18.9745 92.4924 17.8449C93.1026 16.714 93.9688 15.8403 95.0908 15.2225C96.2129 14.6048 97.5379 14.2959 99.0672 14.2959C100.596 14.2959 101.792 14.5846 102.848 15.162C103.905 15.7394 104.723 16.5602 105.3 17.6255C105.878 18.6908 106.166 19.9553 106.166 21.419V22.6382H94.7492C94.879 23.972 95.3266 25.0008 96.0906 25.7244C96.8546 26.4481 97.8795 26.8099 99.1642 26.8099C100.107 26.8099 100.88 26.6309 101.481 26.2729C102.083 25.9148 102.498 25.379 102.726 24.6629H106.092C105.734 26.1922 104.948 27.3836 103.738 28.2371C102.527 29.0906 101.01 29.518 99.1882 29.518H99.1894ZM94.8475 20.3209H102.996C102.866 19.2468 102.459 18.4223 101.776 17.8449C101.093 17.2674 100.19 16.9787 99.0684 16.9787C97.9464 16.9787 97.0197 17.2674 96.2872 17.8449C95.5548 18.4223 95.0757 19.2481 94.8475 20.3209Z" fill="#26242E"/>
<path d="M109.46 29.2254V17.9293H107.777V14.5871H111.242V17.3922H112.267C112.658 16.4328 113.279 15.7003 114.133 15.196C114.986 14.6917 115.966 14.4396 117.073 14.4396H118.292V17.2939H116.925C115.542 17.2939 114.498 17.6923 113.79 18.489C113.083 19.2858 112.728 20.3511 112.728 21.685V29.2229H109.459L109.46 29.2254Z" fill="#26242E"/>
<path d="M123.953 29.2256H120.562V9.46484H134.369V12.3923H123.953V17.8084H133.662V20.7358H123.953V29.2256Z" fill="#26242E"/>
<path d="M142.152 29.494C140.2 29.494 138.683 28.9658 137.602 27.908C136.52 26.8515 135.979 25.4118 135.979 23.59V14.5884H139.297V22.9319C139.297 24.1359 139.606 25.0424 140.224 25.6526C140.842 26.2628 141.761 26.5679 142.981 26.5679C144.201 26.5679 145.205 26.2426 145.897 25.592C146.588 24.9415 146.933 24.03 146.933 22.86V14.5896H150.252V25.8845H151.935V29.2267H148.494V26.9095H147.469C146.916 27.7555 146.209 28.3972 145.346 28.8372C144.484 29.2759 143.419 29.4953 142.15 29.4953L142.152 29.494Z" fill="#26242E"/>
<path d="M154.447 29.2255V17.9293H152.764V14.5871H156.229V16.9044H157.254C157.774 16.0748 158.469 15.4369 159.34 14.9893C160.21 14.5418 161.263 14.3186 162.5 14.3186C164.451 14.3186 165.975 14.867 167.073 15.9651C168.172 17.0632 168.72 18.5307 168.72 20.3689V29.2242H165.402V20.9538C165.402 19.7498 165.08 18.832 164.439 18.1966C163.796 17.5625 162.849 17.2448 161.597 17.2448C160.345 17.2448 159.393 17.5625 158.743 18.1966C158.092 18.8308 157.767 19.7498 157.767 20.9538V29.2242H154.449L154.447 29.2255Z" fill="#26242E"/>
<path d="M171.645 29.2255V8.7323H174.963V20.5882H175.06L181.525 14.5871H185.527L179.038 20.442L186.064 29.2242H182.112L176.745 22.4667L174.963 23.9304V29.2242H171.645V29.2255Z" fill="#26242E"/>
<path d="M193.022 29.518C191.477 29.518 190.131 29.2053 188.984 28.5787C187.837 27.9521 186.954 27.0621 186.338 25.9072C185.72 24.7524 185.411 23.4034 185.411 21.8578C185.411 20.3121 185.716 18.9745 186.326 17.8449C186.937 16.714 187.803 15.8403 188.925 15.2225C190.047 14.6048 191.372 14.2959 192.901 14.2959C194.43 14.2959 195.626 14.5846 196.682 15.162C197.739 15.7394 198.557 16.5602 199.134 17.6255C199.712 18.6908 200 19.9553 200 21.419V22.6382H188.583C188.713 23.972 189.161 25.0008 189.925 25.7244C190.689 26.4481 191.714 26.8099 192.998 26.8099C193.941 26.8099 194.714 26.6309 195.315 26.2729C195.917 25.9148 196.332 25.379 196.56 24.6629H199.926C199.568 26.1922 198.782 27.3836 197.572 28.2371C196.361 29.0906 194.844 29.518 193.022 29.518ZM188.679 20.3209H196.827C196.696 19.2468 196.29 18.4223 195.608 17.8449C194.925 17.2674 194.022 16.9787 192.9 16.9787C191.778 16.9787 190.851 17.2674 190.119 17.8449C189.387 18.4223 188.907 19.2481 188.679 20.3209Z" fill="#26242E"/>
<path d="M13.5833 7.84096H7.28088L6.72363 7.28371V0.981316L7.28088 0.424072H13.5833L14.1405 0.981316V7.28371L13.5833 7.84096Z" fill="#26242E"/>
<path d="M18.292 21.0194L20.8613 28.8486L20.1364 29.5735L12.3098 27.0016C11.0881 26.6095 9.77824 26.6095 8.55533 27.0016L0.732485 29.576L0.00756439 28.8511L2.57441 21.0194C2.9665 19.7978 2.9665 18.4879 2.57441 17.265L0 9.44212L0.724921 8.7172L8.55659 11.2841C9.77824 11.6761 11.0881 11.6761 12.311 11.2841L20.1415 8.71594L20.8664 9.44086L18.2932 17.2662C17.9011 18.4879 17.9011 19.7978 18.2932 21.0207L18.292 21.0194Z" fill="#26242E"/>
</svg>
