<?xml version="1.0" encoding="UTF-8"?>
<svg id="Ebene_1" xmlns="http://www.w3.org/2000/svg" version="1.1" viewBox="0 0 1920 496">
  <!-- Generator: Adobe Illustrator 29.2.1, SVG Export Plug-In . SVG Version: 2.1.0 Build 116)  -->
  <g>
    <path d="M439.86,328.15h-26.9v-156.74h109.53v23.22h-82.63v42.96h77.02v23.22h-77.02v67.34Z"/>
    <path d="M590.4,330.47c-12.26,0-22.93-2.48-32.03-7.45-9.1-4.97-16.16-11.97-21.19-21-5.03-9.03-7.55-19.67-7.55-31.93s2.48-22.9,7.45-31.93c4.96-9.03,12.03-16.03,21.19-20.99,9.16-4.97,19.93-7.45,32.32-7.45s23.28,2.45,32.32,7.35c9.03,4.9,15.99,11.87,20.9,20.9,4.9,9.03,7.35,19.74,7.35,32.12s-2.45,22.93-7.35,32.03c-4.9,9.09-11.9,16.09-21,20.99-9.09,4.9-19.9,7.35-32.41,7.35ZM566.22,197.73c-4.13,0-7.64-1.45-10.55-4.36-2.9-2.9-4.35-6.35-4.35-10.35s1.45-7.45,4.35-10.35c2.9-2.9,6.42-4.36,10.55-4.36s7.45,1.45,10.35,4.36c2.9,2.9,4.35,6.35,4.35,10.35s-1.45,7.45-4.35,10.35c-2.9,2.9-6.36,4.36-10.35,4.36ZM590.4,307.64c10.96,0,19.45-3.35,25.45-10.06,6-6.71,9-15.87,9-27.48s-3-21.09-9-27.67c-6-6.58-14.48-9.87-25.45-9.87s-19.29,3.32-25.35,9.97c-6.07,6.65-9.1,15.84-9.1,27.57s3.03,20.77,9.1,27.48c6.06,6.71,14.51,10.06,25.35,10.06ZM614.59,197.73c-4,0-7.45-1.45-10.35-4.36s-4.35-6.35-4.35-10.35,1.45-7.45,4.35-10.35c2.9-2.9,6.35-4.36,10.35-4.36s7.64,1.45,10.55,4.36c2.9,2.9,4.35,6.35,4.35,10.35s-1.45,7.45-4.35,10.35c-2.9,2.9-6.42,4.36-10.55,4.36Z"/>
    <path d="M677.29,328.15v-89.6h-13.35v-26.51h27.48v22.25h8.13c3.1-7.61,8.03-13.42,14.8-17.42,6.77-4,14.54-6,23.32-6h9.67v22.64h-10.84c-10.97,0-19.25,3.16-24.87,9.48-5.61,6.32-8.42,14.77-8.42,25.35v59.79h-25.93Z"/>
    <path d="M804.62,330.47c-11.74,0-21.74-2.48-29.99-7.45-8.26-4.97-14.51-11.97-18.77-21-4.26-9.03-6.39-19.67-6.39-31.93s2.1-22.93,6.29-32.03c4.19-9.1,10.26-16.09,18.19-20.99,7.93-4.9,17.38-7.35,28.35-7.35,9.03,0,16.77,1.71,23.22,5.13,6.45,3.42,11.42,8.29,14.9,14.61h.77v-63.86h26.32v136.03h13.16v26.51h-27.28v-18.38h-8.13c-4,6.71-9.39,11.84-16.16,15.38-6.77,3.55-14.93,5.32-24.48,5.32ZM809.07,307.83c9.8,0,17.61-2.77,23.41-8.32,5.81-5.54,8.71-13.03,8.71-22.44v-13.93c0-9.41-2.9-16.9-8.71-22.45-5.81-5.54-13.61-8.32-23.41-8.32-10.71,0-18.93,3.36-24.67,10.06-5.74,6.71-8.61,15.93-8.61,27.67s2.87,20.96,8.61,27.67c5.74,6.71,13.96,10.06,24.67,10.06Z"/>
    <path d="M952.07,330.47c-12.26,0-22.93-2.48-32.03-7.45-9.1-4.97-16.09-12.03-21-21.19-4.9-9.16-7.35-19.86-7.35-32.12s2.42-22.87,7.26-31.83c4.84-8.97,11.71-15.9,20.61-20.8,8.9-4.9,19.41-7.35,31.54-7.35s21.61,2.29,29.99,6.87c8.38,4.58,14.87,11.09,19.45,19.54,4.58,8.45,6.87,18.48,6.87,30.09v9.67h-90.56c1.03,10.58,4.58,18.74,10.64,24.48,6.06,5.74,14.19,8.61,24.38,8.61,7.48,0,13.61-1.42,18.38-4.26,4.77-2.84,8.06-7.09,9.87-12.77h26.7c-2.84,12.13-9.07,21.58-18.67,28.35-9.61,6.77-21.64,10.16-36.09,10.16ZM917.62,257.52h64.63c-1.03-8.52-4.26-15.06-9.67-19.64-5.42-4.58-12.58-6.87-21.48-6.87s-16.25,2.29-22.06,6.87c-5.81,4.58-9.61,11.13-11.42,19.64Z"/>
    <path d="M1033.53,328.15v-89.6h-13.35v-26.51h27.48v22.25h8.13c3.1-7.61,8.03-13.42,14.8-17.42,6.77-4,14.54-6,23.32-6h9.67v22.64h-10.84c-10.97,0-19.25,3.16-24.87,9.48-5.61,6.32-8.42,14.77-8.42,25.35v59.79h-25.93Z"/>
    <path d="M1148.48,328.15h-26.9v-156.74h109.52v23.22h-82.62v42.96h77.01v23.22h-77.01v67.34Z"/>
    <path d="M1292.83,330.28c-15.48,0-27.51-4.19-36.09-12.58-8.58-8.38-12.87-19.8-12.87-34.25v-71.4h26.32v66.18c0,9.55,2.45,16.74,7.35,21.58,4.9,4.84,12.19,7.26,21.87,7.26s17.64-2.58,23.13-7.74c5.48-5.16,8.22-12.39,8.22-21.67v-65.6h26.32v89.59h13.35v26.51h-27.29v-18.38h-8.13c-4.39,6.71-10,11.8-16.84,15.29-6.84,3.48-15.29,5.22-25.35,5.22Z"/>
    <path d="M1390.36,328.15v-89.6h-13.35v-26.51h27.48v18.38h8.13c4.13-6.58,9.64-11.64,16.55-15.19,6.9-3.55,15.25-5.32,25.06-5.32,15.48,0,27.57,4.35,36.28,13.06,8.71,8.71,13.06,20.35,13.06,34.93v70.24h-26.32v-65.6c0-9.55-2.55-16.83-7.64-21.87-5.1-5.03-12.61-7.55-22.54-7.55s-17.48,2.52-22.64,7.55c-5.16,5.03-7.74,12.32-7.74,21.87v65.6h-26.32Z"/>
    <path d="M1526.78,328.15v-162.55h26.32v94.04h.77l51.28-47.6h31.74l-51.47,46.44,55.73,69.66h-31.35l-42.57-53.6-14.13,11.61v41.99h-26.32Z"/>
    <path d="M1696.33,330.47c-12.26,0-22.93-2.48-32.03-7.45-9.1-4.97-16.1-12.03-20.99-21.19-4.9-9.16-7.35-19.86-7.35-32.12s2.42-22.87,7.26-31.83c4.84-8.97,11.71-15.9,20.61-20.8,8.9-4.9,19.41-7.35,31.54-7.35s21.61,2.29,29.99,6.87c8.38,4.58,14.87,11.09,19.45,19.54,4.58,8.45,6.87,18.48,6.87,30.09v9.67h-90.56c1.03,10.58,4.58,18.74,10.64,24.48,6.06,5.74,14.19,8.61,24.38,8.61,7.48,0,13.61-1.42,18.38-4.26,4.77-2.84,8.06-7.09,9.87-12.77h26.7c-2.84,12.13-9.07,21.58-18.67,28.35-9.61,6.77-21.64,10.16-36.09,10.16ZM1661.89,257.52h64.63c-1.04-8.52-4.26-15.06-9.67-19.64-5.42-4.58-12.58-6.87-21.48-6.87s-16.25,2.29-22.06,6.87c-5.8,4.58-9.61,11.13-11.42,19.64Z"/>
  </g>
  <g>
    <polygon points="273.05 158.53 223.05 158.53 218.64 154.11 218.64 104.12 223.05 99.7 273.05 99.7 277.46 104.12 277.46 154.11 273.05 158.53"/>
    <path d="M310.39,263.06l20.38,62.1-5.75,5.75-62.08-20.4c-9.69-3.11-20.08-3.11-29.78,0l-62.05,20.42-5.75-5.75,20.36-62.12c3.11-9.69,3.11-20.08,0-29.78l-20.42-62.05,5.75-5.75,62.12,20.36c9.69,3.11,20.08,3.11,29.78,0l62.11-20.37,5.75,5.75-20.41,62.07c-3.11,9.69-3.11,20.08,0,29.78Z"/>
  </g>
</svg>