<svg width="15000" height="15000" viewBox="0 0 15000 15000" fill="none" xmlns="http://www.w3.org/2000/svg">
<path d="M0 750C0 335.787 335.786 0 750 0H14250C14664.2 0 15000 335.786 15000 750V14250C15000 14664.2 14664.2 15000 14250 15000H750C335.787 15000 0 14664.2 0 14250V750Z" fill="#FBD756"/>
<path d="M11637.2 6646.96L10952.4 7223.24L12057.2 7321.22L12930 7473.1L12891.6 7430.72L12408.3 7171.37L11947.9 6877.44L11637.2 6646.96Z" fill="#FF0000"/>
<path d="M7217.75 1800L7096.88 2491.55L7004.81 3188.91L6953.02 4018.83L6930 4635.51L6953.02 5350.16L7004.81 6064.81L7091.13 6785.23L7217.75 7500L7407.62 7459.54L7827.7 2785.48C7827.7 2785.48 7217.73 1800.06 7217.75 1800Z" fill="#FF0000"/>
<path d="M9531.03 4894.91L9352.64 4710.48L8644.84 7280.93L8805.96 7263.64L9531.03 4894.91Z" fill="#FF0000"/>
<path d="M8385.88 3580.87L8034.86 3085.22L7516.96 7442.31L7775.91 7401.95L8385.88 3580.87Z" fill="#FF0000"/>
<path d="M8828.98 4139.91L8564.27 3805.64L7902.51 7382.19L8115.42 7350.08L8828.98 4139.91Z" fill="#FF0000"/>
<path d="M9168.49 4514.53L8961.33 4278.23L8305.32 7321.27L8483.71 7298.21L9168.49 4514.53Z" fill="#FF0000"/>
<path d="M9830.26 5188.84L9663.38 5021.7L8972.84 7246.35L9093.69 7240.58L9830.26 5188.84Z" fill="#FF0000"/>
<path d="M10112.2 5453.95L9951.1 5298.34L9226.04 7234.77L9352.64 7223.24L10112.2 5453.95Z" fill="#FF0000"/>
<path d="M10388.4 5696.01L10250.3 5569.22L9479.24 7223.24L9605.83 7211.71L10388.4 5696.01Z" fill="#FF0000"/>
<path d="M10658.9 5930.21L10505 5791.89L9738.19 7206H9847.52L10658.9 5930.21Z" fill="#FF0000"/>
<path d="M10912.1 6134.02L10779.7 6018.76L9962.61 7200.19H10077.7L10912.1 6134.02Z" fill="#FF0000"/>
<path d="M11153.8 6324.21L11021.4 6214.71L10198.5 7200.19H10313.6L11153.8 6324.21Z" fill="#FF0000"/>
<path d="M11372.5 6456.77L11263.1 6381.85L10463.3 7211.71H10584.1L11372.5 6456.77Z" fill="#FF0000"/>
<path d="M11568.1 6600.85L11458.8 6520.17L10716.4 7211.71H10831.5L11568.1 6600.85Z" fill="#FF0000"/>
<path d="M2792.83 8353.04L3477.62 7776.76L2372.76 7678.78L1500 7526.9L1538.36 7569.28L2021.73 7828.63L2482.09 8122.56L2792.83 8353.04Z" fill="#FF0000"/>
<path d="M7212.25 13200L7333.12 12508.5L7425.19 11811.1L7476.98 10981.2L7500 10364.5L7476.98 9649.84L7425.19 8935.19L7338.87 8214.77L7212.25 7500L7022.38 7540.46L6602.3 12214.5C6602.3 12214.5 7212.27 13199.9 7212.25 13200Z" fill="#FF0000"/>
<path d="M4898.97 10105.1L5077.36 10289.5L5785.16 7719.07L5624.04 7736.36L4898.97 10105.1Z" fill="#FF0000"/>
<path d="M6044.12 11419.1L6395.14 11914.8L6913.04 7557.69L6654.09 7598.05L6044.12 11419.1Z" fill="#FF0000"/>
<path d="M5601.02 10860.1L5865.73 11194.4L6527.49 7617.81L6314.58 7649.92L5601.02 10860.1Z" fill="#FF0000"/>
<path d="M5261.51 10485.5L5468.67 10721.8L6124.68 7678.73L5946.29 7701.79L5261.51 10485.5Z" fill="#FF0000"/>
<path d="M4599.74 9811.16L4766.62 9978.3L5457.16 7753.65L5336.31 7759.42L4599.74 9811.16Z" fill="#FF0000"/>
<path d="M4317.77 9546.05L4478.9 9701.66L5203.96 7765.23L5077.36 7776.76L4317.77 9546.05Z" fill="#FF0000"/>
<path d="M4041.56 9303.99L4179.66 9430.78L4950.76 7776.76L4824.17 7788.29L4041.56 9303.99Z" fill="#FF0000"/>
<path d="M3771.1 9069.79L3925.03 9208.11L4691.81 7794H4582.48L3771.1 9069.79Z" fill="#FF0000"/>
<path d="M3517.9 8865.98L3650.25 8981.24L4467.39 7799.81H4352.3L3517.9 8865.98Z" fill="#FF0000"/>
<path d="M3276.21 8675.79L3408.56 8785.29L4231.45 7799.81H4116.36L3276.21 8675.79Z" fill="#FF0000"/>
<path d="M3057.54 8543.23L3166.88 8618.15L3966.75 7788.29H3845.9L3057.54 8543.23Z" fill="#FF0000"/>
<path d="M2861.89 8399.15L2971.22 8479.83L3713.55 7788.29H3598.46L2861.89 8399.15Z" fill="#FF0000"/>
</svg>
